<svg aria-hidden="true" style="position: absolute; width: 0; height: 0; overflow: hidden;" version="1.1"
    xmlns="http://www.w3.org/2000/svg" xmlns:xlink="http://www.w3.org/1999/xlink">
    <defs>
        <symbol id="youtube" viewBox="0 0 32 32">
            <path fill="#fff" style="fill: var(--color1, #fff)" opacity="0.8"
                d="M24.24 6c-1.36-0.080-4.16-0.16-8.4-0.16h-0.56c-4.080 0-6.8 0.080-8.16 0.24-1.84 0.16-3.12 0.64-3.84 1.28-0.64 0.56-1.12 1.6-1.28 2.96-0.080 0.88-0.16 2.72-0.16 5.52v0.4c0 2.64 0.080 4.48 0.24 5.36 0.24 1.28 0.64 2.24 1.44 2.8 0.8 0.64 2.16 1.040 4.080 1.2 1.36 0.080 4.16 0.16 8.4 0.16h0.56c4.080 0 6.8-0.080 8.16-0.24 1.84-0.16 3.12-0.64 3.84-1.28 0.64-0.56 1.12-1.6 1.28-2.96 0.080-0.88 0.16-2.72 0.16-5.52v-0.4c0-2.64-0.080-4.48-0.24-5.36-0.24-1.28-0.64-2.24-1.44-2.8-0.8-0.64-2.16-1.040-4.080-1.2zM21.12 15.84l-8.8 5.28v-10.56l8.8 5.28z">
            </path>
        </symbol>
        <symbol id="facebook" viewBox="0 0 32 32">
            <path fill="#fff" style="fill: var(--color1, #fff)" opacity="0.8"
                d="M19.52 4.64h0.96v3.6h-1.2c-0.48 0-0.96 0-1.2 0.24s-0.24 0.48-0.24 1.040v1.28h2.64v3.040h-2.64v13.2h-4.080v-13.28h-2.16v-3.040h2.16v-1.040c0-1.76 0.24-3.040 0.72-3.6 0.72-1.040 2.16-1.52 4.32-1.52 0.24 0.080 0.48 0.080 0.72 0.080z">
            </path>
        </symbol>
        <symbol id="instagram" viewBox="0 0 32 32">
            <path fill="#fff" style="fill: var(--color1, #fff)" opacity="0.8"
                d="M28.718 10.755c-0.016-1.134-0.233-2.212-0.617-3.207l0.021 0.063c-0.682-1.722-2.021-3.059-3.7-3.722l-0.044-0.015c-0.921-0.356-1.985-0.573-3.097-0.596l-0.010-0c-1.367-0.061-1.801-0.078-5.271-0.078-3.472 0-3.917 0-5.274 0.078-1.063 0.023-2.112 0.223-3.106 0.597-1.723 0.678-3.062 2.015-3.727 3.693l-0.015 0.044c-0.357 0.919-0.574 1.981-0.595 3.091l-0 0.009c-0.062 1.367-0.080 1.8-0.080 5.265 0 3.466 0 3.909 0.080 5.265 0.021 1.063 0.222 2.11 0.594 3.104 0.682 1.721 2.022 3.058 3.701 3.721l0.044 0.015c0.917 0.369 1.98 0.6 3.091 0.637l0.015 0c1.369 0.062 1.803 0.080 5.274 0.080 3.472 0 3.917 0 5.274-0.080 1.122-0.023 2.187-0.239 3.172-0.616l-0.064 0.022c1.722-0.68 3.061-2.016 3.727-3.693l0.016-0.044c0.374-0.993 0.575-2.040 0.595-3.103 0.062-1.366 0.080-1.799 0.080-5.266-0.002-3.465-0.002-3.905-0.082-5.264zM15.989 22.531c-0.002 0-0.004 0-0.006 0-3.625 0-6.563-2.937-6.566-6.561v-0c0.002-3.624 2.94-6.561 6.565-6.561 0.002 0 0.005 0 0.007 0h-0c3.629 0 6.571 2.937 6.571 6.56-0.003 3.625-2.942 6.562-6.567 6.562-0.002 0-0.003 0-0.005 0h0zM22.823 10.696c-0.845 0-1.53-0.685-1.53-1.53s0.685-1.53 1.53-1.53v0c0.012-0 0.027-0.001 0.042-0.001 0.845 0 1.53 0.685 1.53 1.53s-0.685 1.53-1.53 1.53c-0.015 0-0.029-0-0.044-0.001l0.002 0z">
            </path>
            <path fill="#fff" style="fill: var(--color1, #fff)" opacity="0.8"
                d="M15.992 19.976c0.020 0 0.044 0.001 0.068 0.001 2.212 0 4.005-1.793 4.005-4.005s-1.793-4.005-4.005-4.005c-0.024 0-0.048 0-0.071 0.001l0.004-0c-2.182 0.038-3.937 1.816-3.937 4.004s1.755 3.966 3.933 4.004l0.004 0z">
            </path>
        </symbol>

        <!-- icon mobile -->
        <symbol id="mobilefacebook" xmlns="http://www.w3.org/2000/svg" width="24" height="24" viewBox="0 0 24 24" fill="none">
<path d="M14.6402 3.47992C14.8202 3.47992 15.0002 3.47992 15.3602 3.47992V6.17992C15.1802 6.17992 14.8202 6.17992 14.4602 6.17992C14.1002 6.17992 13.7402 6.17992 13.5602 6.35992C13.3802 6.53992 13.3802 6.71992 13.3802 7.13992C13.3802 7.49992 13.3802 7.73992 13.3802 8.09992H15.3602V10.3799H13.3802V20.2799H10.3202V10.3199H8.7002V8.03992H10.3202V7.25992C10.3202 5.93992 10.5002 4.97992 10.8602 4.55992C11.4002 3.77992 12.4802 3.41992 14.1002 3.41992C14.2802 3.47992 14.4602 3.47992 14.6402 3.47992Z" fill="white"/>
</symbol >


<symbol id="mobileinstagram" width="24" height="24" viewBox="0 0 24 24" fill="none" xmlns="http://www.w3.org/2000/svg">
<g opacity="0.8">
<path d="M21.5381 8.06687C21.5263 7.26111 21.3771 6.46173 21.0913 5.70812C20.5913 4.42124 19.5731 3.40365 18.284 2.9055C17.5388 2.62556 16.7509 2.47548 15.9533 2.45845C14.9277 2.41268 14.6025 2.3999 11.9988 2.3999C9.39519 2.3999 9.06148 2.3999 8.04326 2.45845C7.24682 2.47548 6.4589 2.62556 5.71363 2.9055C4.4246 3.40365 3.40532 4.42124 2.90634 5.70812C2.62594 6.45215 2.47454 7.23875 2.45961 8.03388C2.41376 9.05891 2.3999 9.38356 2.3999 11.9829C2.3999 14.5822 2.3999 14.9143 2.45961 15.9319C2.4756 16.7281 2.62594 17.5136 2.90634 18.2598C3.40639 19.5456 4.4246 20.5632 5.7147 21.0613C6.45677 21.3508 7.24468 21.5148 8.04433 21.5403C9.07107 21.5861 9.39626 21.5999 11.9999 21.5999C14.6035 21.5999 14.9373 21.5999 15.9555 21.5403C16.7519 21.5243 17.5398 21.3742 18.2862 21.0943C19.5752 20.5951 20.5934 19.5775 21.0935 18.2917C21.3739 17.5466 21.5242 16.7611 21.5402 15.9638C21.586 14.9398 21.5999 14.6152 21.5999 12.0148C21.5978 9.41549 21.5978 9.08552 21.5381 8.06687ZM11.9924 16.8984C9.26938 16.8984 7.06343 14.6961 7.06343 11.9776C7.06343 9.25902 9.26938 7.05674 11.9924 7.05674C14.7134 7.05674 16.9214 9.25902 16.9214 11.9776C16.9214 14.6961 14.7134 16.8984 11.9924 16.8984ZM17.1176 8.02217C16.4811 8.02217 15.9683 7.50912 15.9683 6.87472C15.9683 6.24033 16.4811 5.72728 17.1176 5.72728C17.752 5.72728 18.2659 6.24033 18.2659 6.87472C18.2659 7.50912 17.752 8.02217 17.1176 8.02217Z" fill="white"/>
<path d="M11.9942 14.9821C13.6527 14.9821 14.9972 13.6376 14.9972 11.9791C14.9972 10.3206 13.6527 8.97607 11.9942 8.97607C10.3357 8.97607 8.99121 10.3206 8.99121 11.9791C8.99121 13.6376 10.3357 14.9821 11.9942 14.9821Z" fill="white"/>
</g>
</symbol >


<symbol id= "mobileyoutube" width="24" height="24" viewBox="0 0 24 24" fill="none" xmlns="http://www.w3.org/2000/svg">
<g opacity="0.8">
<path fill-rule="evenodd" clip-rule="evenodd" d="M18.1799 4.49988C17.1599 4.43988 15.0599 4.37988 11.8799 4.37988H11.4599C8.39988 4.37988 6.3599 4.43988 5.3399 4.55988C3.9599 4.67988 2.99988 5.03988 2.45988 5.51988C1.97988 5.93988 1.61989 6.71988 1.49989 7.73988C1.43989 8.39988 1.37988 9.77988 1.37988 11.8799V12.1799C1.37988 14.1599 1.43988 15.5399 1.55988 16.1999C1.73988 17.1599 2.0399 17.8799 2.6399 18.2999C3.2399 18.7799 4.25989 19.0799 5.69989 19.1999C6.71989 19.2599 8.81989 19.3199 11.9999 19.3199H12.4199C15.4799 19.3199 17.5199 19.2599 18.5399 19.1399C19.9199 19.0199 20.8799 18.6599 21.4199 18.1799C21.8999 17.7599 22.2599 16.9799 22.3799 15.9599C22.4399 15.2999 22.4999 13.9199 22.4999 11.8199V11.5199C22.4999 9.53988 22.4399 8.15988 22.3199 7.49988C22.1399 6.53988 21.8399 5.81988 21.2399 5.39988C20.6399 4.91988 19.6199 4.61988 18.1799 4.49988ZM15.8399 11.8799L9.2399 15.8399V7.91988L15.8399 11.8799Z" fill="white"/>
</g>
</symbol>


 </defs>
</svg>

